# xmcd CD database file
#
# Track frame offsets:
#	150
#	11964
#	24543
#	38651
#	54146
#	65386
#	77546
#	89281
#	104306
#	124464
#	143058
#	154394
#	167534
#	182108
#	195280
#	210210
#	224474
#	236483
#	251010
#	265919
#
# Disc length: 3731 seconds
#
# Revision: 3
# Processed by: cddbd v1.5.2PL0 Copyright (c) Steve Scherf et al.
# Submitted via: CDex 1.51
#
DISCID=0b0e9114
DTITLE=Ella Fitzgerald - Everyone's Wrong But Me  [CD 09-10]
DYEAR=1900
DGENRE=Jazz
TTITLE0=Ella Fitzgerald and The Delta Rhythm Boys - (It's Only A) Papermoon
TTITLE1=Ella Fitzgerald and The Delta Rhythm Boys - Cry You Out My Heart
TTITLE2=A Kiss Goodnight
TTITLE3=Benny's Coming Home On Saturday
TTITLE4=Flying Home
TTITLE5=Stone Cold Dead In De Market
TTITLE6=Ella Fitzgerald and Louis Jordan - Petootie Pie
TTITLE7=That's Rich
TTITLE8=Always Be In Love With You
TTITLE9=I'll See You In My Dreams
TTITLE10=Ella Fitzgerald and Louis Jordan - Petootie Pie
TTITLE11=Ella Fitzgerald and Louis With Bob Haggart's Orchestra Armstrong - You Won't Be Satisfied
TTITLE12=Ella Fitzgerald and Louis With Bob Haggart's Orchestra Armstrong - The Frim Fram Sauce
TTITLE13=I'm Just A Lucky So And So
TTITLE14=I Didn't Mean A Word Said
TTITLE15=Ella Fitzgerald and The Delta Rhythm Boys - (I Love You)  For Sentimental Reasons
TTITLE16=Ella Fitzgerald and The Delta Rhythm Boys - It's A Pity To Say Goodnight
TTITLE17=Guilty
TTITLE18=Ella With Heywood Fitzgerald  Eddie And His Orchestra - Sentimental Journey
TTITLE19=Budella  (Blue Skies)
EXTD=
EXTT0=
EXTT1=
EXTT2=
EXTT3=
EXTT4=
EXTT5=
EXTT6=
EXTT7=
EXTT8=
EXTT9=
EXTT10=
EXTT11=
EXTT12=
EXTT13=
EXTT14=
EXTT15=
EXTT16=
EXTT17=
EXTT18=
EXTT19=
PLAYORDER=
